<!DOCTYPE svg PUBLIC "-//W3C//DTD SVG 1.1//EN" "http://www.w3.org/Graphics/SVG/1.1/DTD/svg11.dtd">

<!-- Upload#F6871FSVG Repo, www.svgrepo.com, Transformed by: SVG Repo Mixer Tools -->#F6871F
<svg fill="#BFF747" height="800px" width="800px" version="1.1" id="Layer_1" xmlns="http://www.w3.org/2000/svg" xmlns:xlink="http://www.w3.org/1999/xlink" viewBox="-61.44 -61.44 634.88 634.88" xml:space="preserve" stroke="#BFF747" transform="rotate(90)matrix(-1, 0, 0, 1, 0, 0)" stroke-width="51.2">

<g id="SVGRepo_bgCarrier" stroke-width="0"/>

<g id="SVGRepo_tracerCarrier" stroke-linecap="round" stroke-linejoin="round"/>

<g id="SVGRepo_iconCarrier"> <g> <g> <path d="M481.271,207.618H340.474l70.401-121.734c8.833-15.313,3.568-34.857-11.739-43.701l-27.604-15.887 c-15.302-8.828-34.958-3.547-43.802,11.766l-70.396,121.949L186.938,38.08c-4.281-7.417-11.198-12.72-19.469-14.935 c-8.286-2.218-16.911-1.076-24.333,3.2l-27.604,15.938c-7.463,4.314-12.786,11.241-14.984,19.517 c-2.187,8.24-1.036,16.661,3.25,24.083l70.401,121.734H33.401C15.719,207.618,0,222.41,0,240.087v31.87 c0,17.682,15.719,31.661,33.401,31.661h140.797l-70.401,122.135c-8.833,15.307-3.573,35.055,11.734,43.904l27.604,15.989 c15.323,8.828,34.963,3.604,43.802-11.715l70.396-121.919l70.401,121.939c5.932,10.276,16.734,16.03,27.823,16.03 c5.432,0,10.937-1.379,15.974-4.285l27.604-15.938c7.463-4.307,12.786-11.238,14.984-19.514c2.193-8.24,1.036-17.068-3.245-24.49 l-70.401-122.135h140.797c17.677,0,30.729-13.979,30.729-31.661v-31.87C512,222.41,498.948,207.618,481.271,207.618z M490.667,271.957c0,5.917-3.479,10.328-9.396,10.328H322c-3.813,0-7.333,2.234-9.239,5.536c-1.901,3.302-1.901,7.466,0,10.768 l79.635,137.983c1.443,2.5,1.839,5.415,1.11,8.167c-0.734,2.749-2.521,5.079-5.036,6.527l-27.604,15.944 c-5.109,2.974-11.698,1.197-14.656-3.923l-79.635-137.931c-3.812-6.604-14.667-6.603-18.479,0L168.458,463.29 c-3.005,5.208-9.448,6.937-14.656,3.927l-27.599-15.932c-5.125-2.964-6.886-9.537-3.927-14.661l79.635-137.932 c1.901-3.302,1.901-7.568,0-10.87c-1.906-3.302-5.427-5.537-9.239-5.537H33.401c-6.021,0-12.068-4.307-12.068-10.328v-31.87 c0-5.917,6.151-11.135,12.068-11.135h159.271c3.812,0,7.333-1.828,9.239-5.13c1.901-3.302,1.901-7.263,0-10.565L122.271,75.37 c-1.443-2.5-1.833-5.365-1.104-8.116c0.729-2.749,2.516-5.055,5.031-6.503l27.604-15.931c5.089-2.963,11.693-1.199,14.656,3.931 l79.635,137.939c3.812,6.604,14.667,6.604,18.479,0l79.63-137.936c3-5.208,9.443-6.943,14.661-3.927l27.604,15.932 c5.125,2.964,6.885,9.537,3.927,14.662L312.76,213.358c-1.901,3.302-1.901,7.162,0,10.464c1.906,3.302,5.427,5.13,9.24,5.13 h159.271c6.015,0,9.396,5.12,9.396,11.135V271.957z"/> </g> </g> </g>

</svg>